<svg width="32.000000" height="31.000000" viewBox="0 0 32 31" fill="none" xmlns="http://www.w3.org/2000/svg" xmlns:xlink="http://www.w3.org/1999/xlink">
	<desc>
			Created with Pixso.
	</desc>
	<defs/>
	<path id="Vector" d="M14.23 -0.67C12.73 1.49 14.22 7.19 14.55 9.77L15.82 9.46C15.46 6.67 15.79 1.62 14.23 -0.67Z" fill="#FF7000" fill-opacity="1.000000" fill-rule="nonzero"/>
	<path id="Vector" d="M18.35 -0.35L16.13 9.46L17.4 9.77L19.3 -0.03L18.35 -0.35Z" fill="#FF7000" fill-opacity="1.000000" fill-rule="nonzero"/>
	<path id="Vector" d="M9.17 0.91L12.65 10.09L6.64 2.81L5.37 3.13L11.39 11.36L2.84 5.98L2.53 7.24L11.07 12.62L12.65 10.09L14.23 9.77L10.44 0.6L9.17 0.91Z" fill="#FF7000" fill-opacity="1.000000" fill-rule="nonzero"/>
	<path id="Vector" d="M22.46 0.91L17.71 10.09C19.92 10.42 23.96 2.62 22.46 0.91Z" fill="#FF7000" fill-opacity="1.000000" fill-rule="nonzero"/>
	<path id="Vector" d="M19.3 11.36C22.14 10.76 25.58 6.39 27.21 4.08C24.55 3.86 19.98 8.93 19.3 11.36Z" fill="#FF7000" fill-opacity="1.000000" fill-rule="nonzero"/>
	<path id="Vector" d="M0.94 10.09L0.63 11.04C3.3 12.44 7.41 13.75 10.44 13.89C9.62 11.53 3.24 10.56 0.94 10.09Z" fill="#FF7000" fill-opacity="1.000000" fill-rule="nonzero"/>
	<path id="Vector" d="M0 14.52L0 15.79L10.12 15.79L10.12 14.52L0 14.52Z" fill="#FF7000" fill-opacity="1.000000" fill-rule="nonzero"/>
	<path id="Vector" d="M21.19 15.79L31.32 15.47L31.32 14.84C29.31 14.24 21.95 13.51 21.19 15.79Z" fill="#FF7000" fill-opacity="1.000000" fill-rule="nonzero"/>
	<path id="Vector" d="M20.88 16.42C21.7 18.78 28.08 19.74 30.37 20.22L30.69 19.9L30.69 19.27C27.99 17.85 23.92 16.55 20.88 16.42Z" fill="#FF7000" fill-opacity="1.000000" fill-rule="nonzero"/>
	<path id="Vector" d="M20.56 17.68L19.93 18.95L28.47 24.33L28.79 23.06L20.56 17.68Z" fill="#FF7000" fill-opacity="1.000000" fill-rule="nonzero"/>
	<path id="Vector" d="M4.42 26.23L4.74 26.54L12.33 19.9C10.3 18.03 5.27 24.41 4.42 26.23Z" fill="#FF7000" fill-opacity="1.000000" fill-rule="nonzero"/>
	<path id="Vector" d="M20.88 29.71L22.14 29.71L18.66 19.9L18.98 19.9C20.28 22.41 23.05 26.27 25.62 27.49L25.94 27.18C24.92 24.88 22.45 21.59 20.47 20.01C19.62 19.34 18.02 19.49 17.62 20.66C16.91 22.72 20.29 27.57 20.88 29.71Z" fill="#FF7000" fill-opacity="1.000000" fill-rule="nonzero"/>
	<path id="Vector" d="M12.33 19.9C11.45 22.02 7.12 27.52 8.85 29.39L13.6 20.22L12.33 19.9Z" fill="#FF7000" fill-opacity="1.000000" fill-rule="nonzero"/>
	<path id="Vector" d="M13.92 20.53L12.33 30.66C15.24 29.81 13.63 23.09 15.82 21.17C15.82 23.19 15.52 30.02 17.71 30.66C17.71 28.62 18.13 22.65 16.76 21.11C16.2 20.49 14.69 20.62 13.92 20.53Z" fill="#FF7000" fill-opacity="1.000000" fill-rule="nonzero"/>
</svg>
