<svg width="20.000000" height="20.000000" viewBox="0 0 20 20" fill="none" xmlns="http://www.w3.org/2000/svg" xmlns:xlink="http://www.w3.org/1999/xlink">
	<desc>
			Created with Pixso.
	</desc>
	<defs/>
	<path d="M9 1C9 0.44 9.44 0 10 0C10.55 0 11 0.44 11 1L11 2C11 2.55 10.55 3 10 3C9.44 3 9 2.55 9 2L9 1ZM2.92 4.34C2.73 4.14 2.63 3.89 2.63 3.63C2.63 3.38 2.73 3.12 2.92 2.92C3.31 2.53 3.95 2.53 4.34 2.92L5.05 3.63C5.24 3.83 5.34 4.08 5.34 4.34C5.34 4.59 5.24 4.85 5.05 5.05C4.65 5.44 4.02 5.44 3.63 5.05L2.92 4.34ZM16.77 5.62C16.34 5.97 15.71 5.92 15.36 5.5C15.2 5.31 15.12 5.08 15.12 4.85C15.12 4.57 15.25 4.28 15.48 4.09L16.25 3.44C16.67 3.09 17.3 3.14 17.66 3.57C17.81 3.75 17.89 3.98 17.89 4.21C17.89 4.49 17.77 4.78 17.53 4.98L16.77 5.62ZM15 10C15 12.76 12.76 15 10 15C7.23 15 5 12.76 5 10C5 7.23 7.23 5 10 5C12.76 5 15 7.23 15 10ZM1 11C0.44 11 0 10.55 0 10C0 9.44 0.44 9 1 9L2 9C2.55 9 3 9.44 3 10C3 10.55 2.55 11 2 11L1 11ZM17 10C17 9.44 17.44 9 18 9L19 9C19.55 9 20 9.44 20 10C20 10.55 19.55 11 19 11L18 11C17.44 11 17 10.55 17 10ZM3.74 16.55C3.32 16.9 2.69 16.85 2.33 16.42C2.18 16.24 2.1 16.01 2.1 15.78C2.1 15.5 2.22 15.21 2.46 15.01L3.22 14.37C3.65 14.02 4.28 14.07 4.63 14.49C4.79 14.68 4.87 14.91 4.87 15.14C4.87 15.42 4.75 15.71 4.51 15.9L3.74 16.55ZM14.94 14.94C15.34 14.55 15.97 14.55 16.36 14.94L17.07 15.65C17.26 15.85 17.36 16.1 17.36 16.36C17.36 16.61 17.26 16.87 17.07 17.07C16.68 17.46 16.04 17.46 15.65 17.07L14.94 16.36C14.75 16.16 14.65 15.91 14.65 15.65C14.65 15.4 14.75 15.14 14.94 14.94ZM10 17C10.55 17 11 17.44 11 18L11 19C11 19.55 10.55 20 10 20C9.44 20 9 19.55 9 19L9 18C9 17.44 9.44 17 10 17Z" fill="#FF7000" fill-opacity="1.000000" fill-rule="evenodd"/>
</svg>
