<svg width="13.000000" height="13.000000" viewBox="0 0 13 13" fill="none" xmlns="http://www.w3.org/2000/svg" xmlns:xlink="http://www.w3.org/1999/xlink">
	<desc>
			Created with Pixso.
	</desc>
	<defs/>
	<path id="Vector" d="M7.14 9.75L7.14 11.05L9.75 11.05L9.75 12.34L3.25 12.34L3.25 11.05L5.85 11.05L5.85 9.75L0.64 9.75C0.55 9.74 0.47 9.73 0.39 9.69C0.31 9.66 0.24 9.61 0.18 9.55C0.12 9.49 0.07 9.42 0.04 9.34C0.01 9.26 -0.01 9.18 0 9.09L0 0.65C0 0.29 0.29 0 0.64 0L12.35 0C12.71 0 13 0.29 13 0.65L13 9.09C13 9.45 12.7 9.75 12.35 9.75L7.14 9.75Z" fill="#7B8EC8" fill-opacity="1.000000" fill-rule="nonzero"/>
</svg>
