<svg width="20.000000" height="20.000000" viewBox="0 0 20 20" fill="none" xmlns="http://www.w3.org/2000/svg" xmlns:xlink="http://www.w3.org/1999/xlink">
	<desc>
			Created with Pixso.
	</desc>
	<defs/>
	<path id="Vector" d="M5.9 1.59C5.9 0.71 6.62 0 7.5 0L12.5 0C13.37 0 14.09 0.71 14.09 1.59L14.09 3.63L18.4 3.63C19.28 3.63 20 4.34 20 5.22L20 18.4C20 18.83 19.83 19.23 19.53 19.53C19.23 19.83 18.83 20 18.4 20L1.59 20C1.16 20 0.76 19.83 0.46 19.53C0.16 19.23 0 18.83 0 18.4L0 5.22C0 4.34 0.71 3.63 1.59 3.63L5.9 3.63L5.9 1.59ZM1.36 10.89L1.36 18.4C1.36 18.53 1.46 18.63 1.59 18.63L18.4 18.63C18.46 18.63 18.52 18.61 18.56 18.56C18.61 18.52 18.63 18.46 18.63 18.4L18.63 10.89C17.93 11.49 17.05 11.81 16.13 11.81L3.86 11.81C2.94 11.81 2.06 11.49 1.36 10.89ZM18.63 7.95L18.63 5.22C18.63 5.16 18.61 5.1 18.56 5.06C18.52 5.02 18.46 5 18.4 5L1.59 5C1.53 5 1.47 5.02 1.43 5.06C1.38 5.1 1.36 5.16 1.36 5.22L1.36 7.95C1.36 8.61 1.62 9.25 2.09 9.72C2.56 10.19 3.2 10.45 3.86 10.45L16.13 10.45C16.79 10.45 17.43 10.19 17.9 9.72C18.37 9.25 18.63 8.61 18.63 7.95ZM12.72 1.59C12.72 1.53 12.7 1.47 12.66 1.43C12.61 1.38 12.56 1.36 12.5 1.36L7.5 1.36C7.43 1.36 7.38 1.38 7.33 1.43C7.29 1.47 7.27 1.53 7.27 1.59L7.27 3.63L12.72 3.63L12.72 1.59Z" fill="#151821" fill-opacity="1.000000" fill-rule="evenodd"/>
</svg>
