<svg width="19.000000" height="21.000000" viewBox="0 0 19 21" fill="none" xmlns="http://www.w3.org/2000/svg" xmlns:xlink="http://www.w3.org/1999/xlink">
	<desc>
			Created with Pixso.
	</desc>
	<defs/>
	<path id="Vector" d="M12.05 -0.75L10.94 -0.75C9.57 -0.75 8.47 -0.75 7.6 -0.64C6.7 -0.52 5.95 -0.26 5.34 0.34C4.94 0.74 4.7 1.21 4.54 1.75C3.59 1.75 2.79 1.76 2.15 1.84C1.39 1.95 0.73 2.17 0.2 2.7C-0.33 3.23 -0.55 3.89 -0.66 4.65C-0.75 5.38 -0.75 6.31 -0.75 7.44L-0.75 12.55C-0.75 13.68 -0.75 14.61 -0.66 15.34C-0.55 16.1 -0.33 16.76 0.2 17.29C0.73 17.82 1.39 18.04 2.15 18.15C2.79 18.23 3.59 18.24 4.54 18.24C4.7 18.78 4.94 19.25 5.34 19.65C5.95 20.25 6.7 20.51 7.6 20.63C8.47 20.75 9.57 20.75 10.94 20.75L12.05 20.75C13.42 20.75 14.52 20.75 15.39 20.63C16.29 20.51 17.04 20.25 17.65 19.65C18.25 19.04 18.51 18.29 18.63 17.39C18.75 16.52 18.75 15.42 18.75 14.05L18.75 5.94C18.75 4.57 18.75 3.47 18.63 2.6C18.51 1.7 18.25 0.95 17.65 0.34C17.04 -0.26 16.29 -0.52 15.39 -0.64C14.52 -0.75 13.42 -0.75 12.05 -0.75L12.05 -0.75ZM4.3 16.74C4.26 16.22 4.25 15.64 4.25 15C4.24 14.59 4.58 14.25 4.99 14.25C5.41 14.24 5.74 14.58 5.75 14.99C5.75 16.08 5.78 16.86 5.89 17.45C5.99 18.01 6.16 18.34 6.4 18.59C6.68 18.86 7.07 19.04 7.8 19.14C8.56 19.24 9.56 19.25 11 19.25L12 19.25C13.43 19.25 14.43 19.24 15.19 19.14C15.92 19.04 16.31 18.86 16.59 18.59C16.86 18.31 17.04 17.92 17.14 17.19C17.24 16.43 17.25 15.43 17.25 14L17.25 6C17.25 4.56 17.24 3.56 17.14 2.8C17.04 2.07 16.86 1.68 16.59 1.4C16.31 1.13 15.92 0.95 15.19 0.85C14.43 0.75 13.43 0.75 12 0.75L11 0.75C9.56 0.75 8.56 0.75 7.8 0.85C7.07 0.95 6.68 1.13 6.4 1.4C6.16 1.65 5.99 1.98 5.89 2.54C5.78 3.13 5.75 3.91 5.75 5C5.74 5.41 5.41 5.75 4.99 5.75C4.58 5.74 4.24 5.4 4.25 4.99C4.25 4.35 4.26 3.77 4.3 3.25C3.46 3.25 2.84 3.26 2.35 3.33C1.75 3.41 1.46 3.55 1.26 3.76C1.05 3.96 0.91 4.25 0.83 4.85C0.75 5.47 0.75 6.3 0.75 7.5L0.75 12.5C0.75 13.69 0.75 14.52 0.83 15.14C0.91 15.74 1.05 16.03 1.26 16.23C1.46 16.44 1.75 16.58 2.35 16.66C2.84 16.73 3.46 16.74 4.3 16.74ZM2.46 9.46C2.17 9.76 2.17 10.23 2.46 10.53L4.46 12.53C4.76 12.82 5.23 12.82 5.53 12.53C5.82 12.23 5.82 11.76 5.53 11.46L4.81 10.75L12 10.75C12.41 10.75 12.75 10.41 12.75 10C12.75 9.58 12.41 9.25 12 9.25L4.81 9.25L5.53 8.53C5.82 8.23 5.82 7.76 5.53 7.46C5.23 7.17 4.76 7.17 4.46 7.46L2.46 9.46Z" fill="#FFFFFF" fill-opacity="1.000000" fill-rule="evenodd"/>
</svg>
